<?xml version="1.0" standalone="no"?>
<!DOCTYPE svg PUBLIC "-//W3C//DTD SVG 20010904//EN"
 "http://www.w3.org/TR/2001/REC-SVG-20010904/DTD/svg10.dtd">
<svg version="1.0" xmlns="http://www.w3.org/2000/svg"
 width="240.000000pt" height="240.000000pt" viewBox="0 0 240.000000 240.000000"
 preserveAspectRatio="xMidYMid meet">
<metadata>
Created by potrace 1.11, written by Peter Selinger 2001-2013
</metadata>
<g transform="translate(0.000000,240.000000) scale(0.100000,-0.100000)"
fill="#000000" stroke="none">
<path d="M350 1805 c-43 -19 -66 -23 -107 -18 -44 5 -54 3 -70 -16 -10 -12
-20 -31 -23 -44 -3 -12 -16 -26 -28 -32 -16 -7 -22 -17 -20 -35 2 -19 -2 -26
-20 -28 -38 -6 -55 -44 -50 -114 3 -34 -1 -87 -8 -117 -13 -53 -12 -57 9 -79
23 -25 91 -62 113 -62 12 0 35 61 39 103 2 20 65 106 78 107 4 0 15 8 25 18
23 23 75 42 112 42 23 0 29 -5 34 -30 4 -23 11 -30 28 -30 13 0 32 -7 42 -15
44 -33 191 -3 211 43 7 15 33 31 85 51 144 56 150 56 240 20 44 -17 80 -35 80
-39 0 -4 -15 -13 -32 -21 -55 -22 -145 -87 -179 -129 -22 -27 -40 -40 -57 -40
-14 0 -42 -5 -62 -11 -30 -9 -39 -18 -44 -40 -4 -22 -15 -33 -46 -45 -47 -19
-80 -67 -80 -116 0 -49 -28 -71 -93 -74 -81 -4 -117 -14 -117 -33 0 -29 37
-43 98 -35 l56 7 -23 -34 c-12 -19 -31 -53 -43 -77 -11 -23 -30 -50 -42 -60
-11 -9 -34 -34 -50 -56 -16 -21 -44 -44 -62 -52 -36 -15 -59 -43 -69 -86 -4
-16 -18 -31 -35 -38 -38 -16 -120 -95 -120 -117 0 -9 8 -26 19 -37 10 -12 21
-33 24 -47 6 -22 0 -30 -34 -55 -22 -16 -54 -40 -70 -53 -16 -12 -36 -20 -44
-17 -13 5 -15 -14 -15 -129 l0 -135 1200 0 1200 0 0 254 0 253 -47 -8 c-27 -5
-72 -16 -101 -25 -38 -12 -60 -14 -75 -7 -12 6 -65 8 -117 5 -52 -2 -108 -4
-125 -3 -218 6 -342 -7 -380 -40 -5 -5 -17 -9 -26 -9 -9 0 -22 -7 -29 -15 -9
-10 -27 -15 -54 -14 -32 2 -51 -5 -86 -29 -61 -43 -162 -59 -201 -31 -18 13
-29 15 -37 7 -7 -7 -13 -4 -21 11 -14 25 -53 28 -72 5 -19 -23 -103 -14 -130
15 -11 11 -29 21 -40 21 -11 0 -28 4 -38 10 -14 7 -29 2 -67 -25 -52 -38 -106
-53 -127 -37 -18 14 -111 24 -137 14 -28 -10 -72 7 -65 26 4 10 0 10 -18 1
-26 -14 -80 -51 -87 -60 -3 -4 -14 -3 -24 1 -14 4 -16 9 -8 14 7 4 12 13 12
21 0 16 47 89 95 150 18 22 35 49 39 60 9 30 49 73 79 84 14 6 38 29 53 52 15
24 54 71 88 106 34 35 72 80 84 101 24 43 67 56 142 42 104 -19 215 -21 298
-7 97 17 132 42 132 92 0 37 -19 56 -109 111 l-64 39 39 17 c59 27 138 23 192
-8 25 -15 77 -32 121 -39 43 -8 101 -23 130 -35 61 -24 174 -46 318 -62 90
-10 105 -10 120 4 10 9 28 19 41 23 29 9 17 28 -14 22 -19 -3 -22 -2 -13 9 6
7 9 17 6 21 -4 8 27 43 38 43 3 0 8 0 13 0 21 1 -27 20 -50 20 -19 0 -31 -8
-40 -27 -7 -14 -25 -35 -40 -46 -26 -19 -28 -19 -100 -2 -40 10 -107 35 -149
56 -55 28 -89 39 -121 39 -24 0 -71 11 -104 23 -65 26 -146 77 -122 77 9 0 21
-7 28 -15 16 -19 49 -19 56 -1 3 8 16 17 30 20 20 5 24 13 24 41 0 18 5 37 10
40 6 3 10 34 10 69 0 58 -2 64 -36 97 -30 29 -42 34 -81 34 -28 0 -48 -5 -50
-12 -3 -7 -13 -13 -24 -13 -13 0 -17 -5 -12 -17 5 -13 -2 -10 -26 10 -18 15
-45 30 -59 33 -15 4 -79 22 -142 42 -179 55 -283 46 -366 -29 -19 -18 -22 -18
-34 -4 -16 20 -39 19 -62 -2 -14 -13 -18 -13 -19 -2 0 8 -2 26 -4 41 -2 15 5
43 15 64 11 20 17 41 14 45 -3 5 -37 8 -75 7 -58 -2 -72 1 -80 15 -6 9 -16 17
-23 17 -8 0 -19 7 -26 15 -17 21 -55 17 -120 -10z"/>
</g>
</svg>
